<?xml version="1.0" encoding="iso-8859-1"?>
<!-- Generator: Adobe Illustrator 18.0.0, SVG Export Plug-In . SVG Version: 6.00 Build 0)  -->
<!DOCTYPE svg PUBLIC "-//W3C//DTD SVG 1.1//EN" "http://www.w3.org/Graphics/SVG/1.1/DTD/svg11.dtd">
<svg version="1.1" id="Capa_1" xmlns="http://www.w3.org/2000/svg" xmlns:xlink="http://www.w3.org/1999/xlink" x="0px" y="0px"
	 viewBox="0 0 185.437 185.437" style="enable-background:new 0 0 185.437 185.437;" xml:space="preserve">
<g>
	<path d="M23.03,88.44c-0.816,0.022-1.632,0.06-2.448,0.104c-0.105-0.297-0.211-0.596-0.325-0.892
		c-0.812-2.117-1.66-4.294-2.626-6.348c-0.232-0.491-0.523-0.938-0.878-1.296c-0.429-1.143-1.085-2.097-2.298-1.957
		c-0.099-0.012-0.202-0.007-0.31,0.045c-1.463,0.712-1.792,2.447-2.112,3.898c-0.025,0.115-0.055,0.229-0.081,0.344
		c-0.237,0.715-0.415,1.466-0.554,2.17c-0.359,1.322-0.727,2.646-0.984,3.982c-0.083,0.248-0.173,0.495-0.254,0.743
		c-3.295,0.178-6.574,0.465-9.777,1.306c-0.325,0.084-0.49,0.501-0.306,0.783c1.797,2.752,4.959,4.61,8.093,6.157
		c-0.215,1.516-0.401,3.043-0.687,4.547c-0.262,0.712-0.469,1.427-0.516,2.191c-0.14,0.486-0.291,0.968-0.474,1.44
		c-0.351,0.912-0.02,2.031,1.064,1.938c0.449-0.037,0.882-0.407,1.213-0.676c1.278-1.034,2.579-2.039,3.884-3.04
		c0.685-0.523,1.379-1.038,2.072-1.554c0.24-0.115,0.48-0.23,0.72-0.354c0.356-0.184,0.708-0.429,1.058-0.689
		c1.3,0.572,3.627,3.249,4.808,4.059c1.624,1.115,3.395,2.597,5.482,2.192c0.211-0.04,0.408-0.302,0.381-0.517
		c-0.327-2.722-2.503-7.202-3.591-9.69c-0.063-0.144-0.118-0.29-0.178-0.435c2.872-1.554,6.735-3.522,8.074-6.332
		C33.117,87.126,24.198,88.409,23.03,88.44z M6.302,91.645c0.253-0.005,0.506-0.012,0.759-0.017c-0.247,0.333-0.5,0.654-0.772,0.959
		c0.028-0.22,0.057-0.44,0.075-0.664C6.375,91.808,6.347,91.719,6.302,91.645z M2.786,92.491c-0.063,0.037-0.118,0.091-0.162,0.154
		c-0.197-0.179-0.393-0.359-0.577-0.552c0.044-0.001,0.087,0.006,0.136-0.007c0.207-0.05,0.415-0.083,0.622-0.123
		C2.763,92.154,2.759,92.329,2.786,92.491z M5.129,93.894c-0.161-0.117-0.321-0.232-0.477-0.347
		c0.161-0.043,0.327-0.117,0.497-0.223c-0.015,0.185-0.025,0.37-0.022,0.561C5.127,93.887,5.129,93.891,5.129,93.894z M4.77,92.321
		c0.017-0.173,0.023-0.358,0.004-0.574c-0.001-0.013-0.006-0.022-0.009-0.034c0.201-0.014,0.402-0.026,0.603-0.036
		C5.155,91.966,4.951,92.197,4.77,92.321z M6.327,94.746c-0.159-0.11-0.331-0.231-0.511-0.358c0.04-0.014,0.079-0.031,0.117-0.057
		c0.162-0.116,0.307-0.242,0.452-0.368c-0.037,0.16-0.069,0.321-0.09,0.487C6.28,94.56,6.296,94.657,6.327,94.746z M7.214,95.273
		c-0.014,0.029-0.147-0.04-0.358-0.173c0.11-0.012,0.224-0.057,0.332-0.147c0.099-0.081,0.184-0.173,0.272-0.263
		C7.38,94.896,7.298,95.094,7.214,95.273z M7.984,96.008c0.477-0.507,0.613-1.482,0.771-2.097c0.187-0.727,0.429-1.549,0.506-2.342
		c0.061-0.002,0.123-0.008,0.184-0.012c-0.433,1.515-0.803,3.057-1.075,4.646C8.242,96.139,8.112,96.072,7.984,96.008z
		 M8.436,105.837c-0.834,0.68-0.974,0.491-0.878,0.057c0.052,0,0.103,0.002,0.149-0.016c0.388-0.152,0.771-0.321,1.153-0.49
		c0.016,0.025,0.033,0.047,0.052,0.068C8.753,105.582,8.593,105.708,8.436,105.837z M8.925,104.202
		c-0.051,0.024-0.101,0.052-0.151,0.075c0.097-1.87,0.609-3.626,1.113-5.433c0.045-0.16,0.083-0.32,0.123-0.481
		c0.024,0.012,0.047,0.023,0.072,0.034C9.691,100.33,9.32,102.268,8.925,104.202z M10.755,93.725
		c0.088-0.042,0.17-0.104,0.227-0.206c0.124-0.225,0.232-0.453,0.339-0.682c-0.366,1.45-0.694,2.907-0.998,4.368
		c-0.02-0.01-0.041-0.02-0.061-0.029C10.471,96.035,10.6,94.889,10.755,93.725z M10.181,103.346
		c0.298-1.496,0.586-2.991,0.886-4.482c0.281,0.132,0.554,0.264,0.824,0.395C11.378,100.588,10.966,102.12,10.181,103.346z
		 M12.247,98.125c-0.314-0.146-0.627-0.294-0.939-0.443c0.121-0.584,0.247-1.169,0.375-1.751c-0.057,0.449-0.114,0.898-0.173,1.348
		c-0.067,0.506,0.49,0.789,0.815,0.593C12.299,97.955,12.272,98.039,12.247,98.125z M14.377,80.486
		c0.075-0.053,0.156-0.095,0.238-0.131c0.05,0.1,0.101,0.197,0.154,0.294c-0.154-0.047-0.333-0.021-0.473,0.059
		C14.322,80.634,14.35,80.561,14.377,80.486z M14.274,85.723c-0.009,1.088-0.091,2.179-0.138,3.271
		c-0.027,0.002-0.054,0.003-0.082,0.006C14.156,87.91,14.199,86.816,14.274,85.723z M12.662,96.806
		c0.231-1.449,0.384-2.938,0.745-4.363c0.003-0.009,0.01-0.016,0.013-0.023c0.008-0.024,0.014-0.049,0.021-0.072
		c0.051,0.565,0.097,1.195,0.157,1.838C13.269,95.053,12.953,95.925,12.662,96.806z M14.824,99.299
		c-0.26-0.117-0.52-0.236-0.78-0.353c0.057-0.161,0.119-0.319,0.177-0.479c0.118,0.009,0.237-0.024,0.339-0.108
		c0.091,0.155,0.19,0.293,0.3,0.416c-0.002,0.049-0.007,0.098-0.008,0.148c-0.003,0.111,0.031,0.208,0.088,0.287
		C14.901,99.24,14.863,99.271,14.824,99.299z M16.677,83.999c0.087,0.249,0.157,0.507,0.221,0.768
		c-0.125,0.066-0.22,0.177-0.258,0.316c-0.302-1.125-0.684-2.221-1.165-3.296C15.93,82.477,16.387,83.166,16.677,83.999z
		 M16.194,88.844c-0.144,0.011-0.287,0.021-0.432,0.032c-0.005-1.256-0.081-2.51-0.194-3.765
		C15.901,86.319,16.109,87.562,16.194,88.844z M15.715,90.742c0.014-0.276,0.025-0.553,0.032-0.829
		c0.17-0.009,0.339-0.019,0.508-0.027c0.012,0.227,0.026,0.449,0.039,0.675c-0.135,0.183-0.266,0.373-0.388,0.569
		C15.905,90.974,15.832,90.837,15.715,90.742z M16.169,99.91c-0.035-0.016-0.069-0.03-0.104-0.047
		c0.192-0.019,0.375-0.134,0.449-0.374c0.007-0.021,0.016-0.044,0.022-0.067c0.28-0.175,0.509-0.268,0.622-0.208
		C16.828,99.445,16.497,99.675,16.169,99.91z M18.732,95.229c-0.253,0.368-0.516,0.721-0.798,1.055
		c0.275-0.447,0.547-0.896,0.83-1.339C18.755,95.038,18.744,95.133,18.732,95.229z M19.414,88.614
		c-0.381-0.99-0.817-1.955-1.341-2.887c-0.022-0.146-0.045-0.294-0.069-0.439c0.002-0.124,0.007-0.249,0.01-0.372
		c0.501,1.224,0.995,2.453,1.458,3.693C19.453,88.611,19.434,88.612,19.414,88.614z M21.532,96.251
		c-0.014-0.123-0.064-0.236-0.139-0.331c-0.277-1.314-0.52-2.636-0.863-3.869c-0.224-0.806-0.466-1.6-0.734-2.383
		c0.021-0.003,0.043-0.003,0.064-0.005c0.228,0.636,0.452,1.271,0.661,1.912c0.298,0.915,0.617,1.813,0.942,2.707
		c0.105,0.578,0.245,1.15,0.459,1.71C21.792,96.078,21.662,96.164,21.532,96.251z M22.131,101.371
		c0.126,0.093,0.293,0.115,0.447,0.08c0.082,0.424,1.192,2.906,1.21,3.337C23.551,104.356,22.305,101.842,22.131,101.371z
		 M24.31,101.789c0.034,0.09,1.451,3.078,1.519,3.804c-0.909-1.735-2.338-5.711-3.043-7.534c-0.133-0.346-0.476-0.417-0.731-0.308
		c-0.013-0.028-0.023-0.056-0.035-0.083c0.098-0.057,0.195-0.116,0.294-0.173c0.092-0.053,0.192-0.107,0.288-0.16
		C23.168,98.813,23.746,100.288,24.31,101.789z M22.987,95.293c0-0.216,0-0.431,0-0.646c0.064,0.159,0.142,0.317,0.25,0.477
		c0.002,0.003,0.005,0.005,0.006,0.008C23.158,95.186,23.072,95.238,22.987,95.293z M23.651,92.923
		c-0.031-0.183-0.061-0.358-0.096-0.515c-0.186-0.848-0.599-1.653-0.858-2.481c-0.074-0.238-0.237-0.348-0.411-0.367
		c0.206-0.005,0.412-0.011,0.618-0.018c-0.015,0.076-0.017,0.155,0.012,0.24c0.242,0.705,0.502,1.432,0.864,2.091
		C23.756,92.225,23.712,92.575,23.651,92.923z M24.39,94.403c0.098-0.328,0.182-0.665,0.252-1.01
		c0.091,0.164,0.178,0.331,0.275,0.492c0.036,0.06,0.078,0.104,0.122,0.142C24.823,94.153,24.605,94.273,24.39,94.403z
		 M24.737,89.816c-0.02-0.109-0.048-0.214-0.072-0.321c0.161-0.005,0.322-0.011,0.484-0.017c-0.031,0.071-0.051,0.152-0.042,0.252
		c0.002,0.023,0.003,0.048,0.005,0.071c-0.077,0.124-0.113,0.273-0.073,0.422c0.036,0.137,0.082,0.268,0.125,0.4
		c0.006,0.169,0.007,0.336,0.004,0.504C25.011,90.695,24.86,90.259,24.737,89.816z M26.202,89.92
		c-0.01-0.066-0.025-0.129-0.034-0.195c0.156,0.001,0.307,0.007,0.452,0.017c-0.01,0.05-0.019,0.103-0.012,0.165
		c0.021,0.171,0.04,0.34,0.06,0.509C26.529,90.239,26.375,90.073,26.202,89.92z M29.086,90.765c0.011-0.292,0.007-0.585,0-0.885
		C29.39,90.048,29.458,90.324,29.086,90.765z"/>
	<path d="M61.428,88.44c-0.816,0.022-1.632,0.06-2.448,0.104c-0.105-0.297-0.211-0.596-0.325-0.892
		c-0.812-2.117-1.66-4.294-2.626-6.348c-0.232-0.491-0.524-0.938-0.878-1.296c-0.429-1.143-1.084-2.097-2.298-1.957
		c-0.098-0.012-0.202-0.007-0.31,0.045c-1.463,0.712-1.792,2.447-2.112,3.898c-0.025,0.115-0.054,0.229-0.08,0.344
		c-0.238,0.715-0.416,1.466-0.555,2.17c-0.359,1.322-0.726,2.646-0.984,3.982c-0.084,0.248-0.173,0.495-0.254,0.743
		c-3.295,0.178-6.574,0.465-9.778,1.306c-0.324,0.084-0.49,0.501-0.305,0.783c1.797,2.752,4.959,4.61,8.093,6.157
		c-0.215,1.516-0.401,3.043-0.687,4.547c-0.261,0.712-0.469,1.427-0.516,2.191c-0.14,0.486-0.291,0.968-0.473,1.44
		c-0.352,0.912-0.02,2.031,1.063,1.938c0.449-0.037,0.882-0.407,1.214-0.676c1.278-1.034,2.579-2.039,3.883-3.04
		c0.685-0.523,1.379-1.038,2.072-1.554c0.24-0.115,0.48-0.23,0.72-0.354c0.357-0.184,0.708-0.429,1.059-0.689
		c1.299,0.572,3.627,3.249,4.808,4.059c1.623,1.115,3.394,2.597,5.481,2.192c0.212-0.04,0.408-0.302,0.382-0.517
		c-0.327-2.722-2.503-7.202-3.591-9.69c-0.063-0.144-0.118-0.29-0.178-0.435c2.872-1.554,6.735-3.522,8.074-6.332
		C71.515,87.126,62.596,88.409,61.428,88.44z M44.701,91.645c0.253-0.005,0.506-0.012,0.759-0.017
		c-0.248,0.333-0.5,0.654-0.771,0.959c0.028-0.22,0.057-0.44,0.076-0.664C44.773,91.808,44.745,91.719,44.701,91.645z
		 M41.184,92.491c-0.063,0.037-0.118,0.091-0.162,0.154c-0.197-0.179-0.393-0.359-0.577-0.552c0.045-0.001,0.087,0.006,0.136-0.007
		c0.207-0.05,0.415-0.083,0.622-0.123C41.161,92.154,41.157,92.329,41.184,92.491z M43.527,93.894
		c-0.162-0.117-0.321-0.232-0.477-0.347c0.161-0.043,0.327-0.117,0.497-0.223c-0.015,0.185-0.025,0.37-0.021,0.561
		C43.526,93.887,43.527,93.891,43.527,93.894z M43.168,92.321c0.017-0.173,0.022-0.358,0.004-0.574
		c-0.001-0.013-0.006-0.022-0.008-0.034c0.201-0.014,0.401-0.026,0.603-0.036C43.553,91.966,43.349,92.197,43.168,92.321z
		 M44.725,94.746c-0.158-0.11-0.331-0.231-0.51-0.358c0.04-0.014,0.079-0.031,0.116-0.057c0.162-0.116,0.307-0.242,0.452-0.368
		c-0.037,0.16-0.069,0.321-0.09,0.487C44.678,94.56,44.694,94.657,44.725,94.746z M45.612,95.273
		c-0.014,0.029-0.147-0.04-0.358-0.173c0.11-0.012,0.224-0.057,0.332-0.147c0.099-0.081,0.184-0.173,0.272-0.263
		C45.778,94.896,45.696,95.094,45.612,95.273z M46.382,96.008c0.477-0.507,0.613-1.482,0.771-2.097
		c0.187-0.727,0.429-1.549,0.506-2.342c0.062-0.002,0.123-0.008,0.184-0.012c-0.433,1.515-0.803,3.057-1.075,4.646
		C46.64,96.139,46.511,96.072,46.382,96.008z M46.834,105.837c-0.834,0.68-0.973,0.491-0.878,0.057c0.052,0,0.103,0.002,0.149-0.016
		c0.389-0.152,0.771-0.321,1.153-0.49c0.016,0.025,0.034,0.047,0.052,0.068C47.151,105.582,46.991,105.708,46.834,105.837z
		 M47.323,104.202c-0.051,0.024-0.1,0.052-0.151,0.075c0.098-1.87,0.609-3.626,1.113-5.433c0.044-0.16,0.083-0.32,0.123-0.481
		c0.024,0.012,0.047,0.023,0.071,0.034C48.089,100.33,47.719,102.268,47.323,104.202z M49.154,93.725
		c0.088-0.042,0.169-0.104,0.226-0.206c0.123-0.225,0.232-0.453,0.34-0.682c-0.367,1.45-0.694,2.907-0.999,4.368
		c-0.02-0.01-0.041-0.02-0.061-0.029C48.87,96.035,48.998,94.889,49.154,93.725z M48.579,103.346
		c0.298-1.496,0.587-2.991,0.887-4.482c0.281,0.132,0.553,0.264,0.824,0.395C49.777,100.588,49.364,102.12,48.579,103.346z
		 M50.645,98.125c-0.313-0.146-0.626-0.294-0.939-0.443c0.121-0.584,0.246-1.169,0.375-1.751c-0.057,0.449-0.113,0.898-0.173,1.348
		c-0.067,0.506,0.49,0.789,0.815,0.593C50.697,97.955,50.67,98.039,50.645,98.125z M52.774,80.486
		c0.075-0.053,0.156-0.095,0.239-0.131c0.049,0.1,0.1,0.197,0.154,0.294c-0.154-0.047-0.332-0.021-0.473,0.059
		C52.72,80.634,52.748,80.561,52.774,80.486z M52.672,85.723c-0.009,1.088-0.091,2.179-0.138,3.271
		c-0.027,0.002-0.054,0.003-0.081,0.006C52.554,87.91,52.597,86.816,52.672,85.723z M51.06,96.806
		c0.231-1.449,0.384-2.938,0.745-4.363c0.003-0.009,0.01-0.016,0.013-0.023c0.007-0.024,0.013-0.049,0.021-0.072
		c0.051,0.565,0.097,1.195,0.157,1.838C51.667,95.053,51.351,95.925,51.06,96.806z M53.223,99.299
		c-0.26-0.117-0.521-0.236-0.781-0.353c0.057-0.161,0.119-0.319,0.178-0.479c0.117,0.009,0.237-0.024,0.339-0.108
		c0.09,0.155,0.19,0.293,0.299,0.416c-0.002,0.049-0.007,0.098-0.008,0.148c-0.003,0.111,0.031,0.208,0.088,0.287
		C53.299,99.24,53.261,99.271,53.223,99.299z M55.075,83.999c0.086,0.249,0.157,0.507,0.221,0.768
		c-0.125,0.066-0.22,0.177-0.257,0.316c-0.302-1.125-0.684-2.221-1.166-3.296C54.328,82.477,54.785,83.166,55.075,83.999z
		 M54.592,88.844c-0.144,0.011-0.287,0.021-0.432,0.032c-0.005-1.256-0.081-2.51-0.194-3.765
		C54.3,86.319,54.507,87.562,54.592,88.844z M54.113,90.742c0.014-0.276,0.025-0.553,0.032-0.829
		c0.17-0.009,0.339-0.019,0.508-0.027c0.012,0.227,0.026,0.449,0.039,0.675c-0.135,0.183-0.265,0.373-0.388,0.569
		C54.303,90.974,54.23,90.837,54.113,90.742z M54.567,99.91c-0.034-0.016-0.069-0.03-0.103-0.047
		c0.192-0.019,0.375-0.134,0.448-0.374c0.007-0.021,0.016-0.044,0.023-0.067c0.28-0.175,0.508-0.268,0.622-0.208
		C55.226,99.445,54.896,99.675,54.567,99.91z M57.13,95.229c-0.253,0.368-0.516,0.721-0.797,1.055
		c0.274-0.447,0.547-0.896,0.83-1.339C57.153,95.038,57.142,95.133,57.13,95.229z M57.812,88.614
		c-0.38-0.99-0.817-1.955-1.341-2.887c-0.023-0.146-0.045-0.294-0.069-0.439c0.003-0.124,0.007-0.249,0.01-0.372
		c0.501,1.224,0.995,2.453,1.458,3.693C57.851,88.611,57.832,88.612,57.812,88.614z M59.93,96.251
		c-0.014-0.123-0.063-0.236-0.139-0.331c-0.277-1.314-0.52-2.636-0.863-3.869c-0.224-0.806-0.467-1.6-0.735-2.383
		c0.022-0.003,0.043-0.003,0.065-0.005c0.228,0.636,0.451,1.271,0.66,1.912c0.298,0.915,0.617,1.813,0.942,2.707
		c0.106,0.578,0.245,1.15,0.459,1.71C60.19,96.078,60.061,96.164,59.93,96.251z M60.529,101.371c0.125,0.093,0.292,0.115,0.447,0.08
		c0.081,0.424,1.192,2.906,1.209,3.337C61.949,104.356,60.703,101.842,60.529,101.371z M62.708,101.789
		c0.034,0.09,1.452,3.078,1.52,3.804c-0.91-1.735-2.338-5.711-3.043-7.534c-0.133-0.346-0.476-0.417-0.732-0.308
		c-0.013-0.028-0.023-0.056-0.035-0.083c0.098-0.057,0.195-0.116,0.293-0.173c0.093-0.053,0.192-0.107,0.288-0.16
		C61.566,98.813,62.144,100.288,62.708,101.789z M61.385,95.293c0-0.216,0-0.431,0-0.646c0.064,0.159,0.142,0.317,0.25,0.477
		c0.002,0.003,0.005,0.005,0.007,0.008C61.557,95.186,61.47,95.238,61.385,95.293z M62.049,92.923
		c-0.031-0.183-0.061-0.358-0.096-0.515c-0.186-0.848-0.599-1.653-0.857-2.481c-0.074-0.238-0.237-0.348-0.411-0.367
		c0.206-0.005,0.412-0.011,0.618-0.018c-0.015,0.076-0.017,0.155,0.012,0.24c0.241,0.705,0.502,1.432,0.863,2.091
		C62.154,92.225,62.111,92.575,62.049,92.923z M62.789,94.403c0.098-0.328,0.182-0.665,0.251-1.01
		c0.091,0.164,0.178,0.331,0.275,0.492c0.036,0.06,0.078,0.104,0.122,0.142C63.221,94.153,63.002,94.273,62.789,94.403z
		 M63.135,89.816c-0.02-0.109-0.048-0.214-0.072-0.321c0.161-0.005,0.322-0.011,0.483-0.017c-0.031,0.071-0.051,0.152-0.042,0.252
		c0.002,0.023,0.004,0.048,0.005,0.071c-0.077,0.124-0.112,0.273-0.073,0.422c0.036,0.137,0.082,0.268,0.125,0.4
		c0.006,0.169,0.007,0.336,0.004,0.504C63.409,90.695,63.258,90.259,63.135,89.816z M64.601,89.92
		c-0.011-0.066-0.026-0.129-0.034-0.195c0.156,0.001,0.307,0.007,0.451,0.017c-0.01,0.05-0.019,0.103-0.012,0.165
		c0.021,0.171,0.04,0.34,0.06,0.509C64.927,90.239,64.773,90.073,64.601,89.92z M67.484,90.765c0.011-0.292,0.007-0.585,0-0.885
		C67.788,90.048,67.856,90.324,67.484,90.765z"/>
	<path d="M99.827,88.44c-0.817,0.022-1.633,0.06-2.448,0.104c-0.106-0.297-0.211-0.596-0.325-0.892
		c-0.812-2.117-1.66-4.294-2.627-6.348c-0.231-0.491-0.523-0.938-0.877-1.296c-0.429-1.143-1.085-2.097-2.298-1.957
		c-0.098-0.012-0.201-0.007-0.31,0.045c-1.462,0.712-1.793,2.447-2.112,3.898c-0.025,0.115-0.054,0.229-0.081,0.344
		c-0.237,0.715-0.415,1.466-0.555,2.17c-0.359,1.322-0.726,2.646-0.984,3.982c-0.084,0.248-0.173,0.495-0.254,0.743
		c-3.295,0.178-6.574,0.465-9.778,1.306c-0.324,0.084-0.49,0.501-0.305,0.783c1.797,2.752,4.959,4.61,8.093,6.157
		c-0.215,1.516-0.401,3.043-0.686,4.547c-0.262,0.712-0.47,1.427-0.517,2.191c-0.14,0.486-0.291,0.968-0.473,1.44
		c-0.351,0.912-0.02,2.031,1.063,1.938c0.449-0.037,0.882-0.407,1.214-0.676c1.278-1.034,2.579-2.039,3.884-3.04
		c0.685-0.523,1.378-1.038,2.071-1.554c0.24-0.115,0.48-0.23,0.72-0.354c0.356-0.184,0.707-0.429,1.058-0.689
		c1.3,0.572,3.627,3.249,4.808,4.059c1.623,1.115,3.394,2.597,5.482,2.192c0.211-0.04,0.407-0.302,0.381-0.517
		c-0.327-2.722-2.503-7.202-3.591-9.69c-0.063-0.144-0.118-0.29-0.178-0.435c2.872-1.554,6.735-3.522,8.074-6.332
		C109.913,87.126,100.994,88.409,99.827,88.44z M83.099,91.645c0.253-0.005,0.506-0.012,0.759-0.017
		c-0.248,0.333-0.501,0.654-0.772,0.959c0.028-0.22,0.057-0.44,0.075-0.664C83.171,91.808,83.143,91.719,83.099,91.645z
		 M79.582,92.491c-0.064,0.037-0.118,0.091-0.163,0.154c-0.197-0.179-0.393-0.359-0.577-0.552c0.044-0.001,0.086,0.006,0.136-0.007
		c0.207-0.05,0.415-0.083,0.622-0.123C79.559,92.154,79.555,92.329,79.582,92.491z M81.925,93.894
		c-0.161-0.117-0.321-0.232-0.477-0.347c0.161-0.043,0.327-0.117,0.496-0.223c-0.015,0.185-0.025,0.37-0.021,0.561
		C81.924,93.887,81.925,93.891,81.925,93.894z M81.566,92.321c0.017-0.173,0.022-0.358,0.004-0.574
		c-0.002-0.013-0.007-0.022-0.009-0.034c0.201-0.014,0.401-0.026,0.603-0.036C81.951,91.966,81.748,92.197,81.566,92.321z
		 M83.123,94.746c-0.159-0.11-0.331-0.231-0.511-0.358c0.04-0.014,0.079-0.031,0.116-0.057c0.163-0.116,0.307-0.242,0.452-0.368
		c-0.037,0.16-0.069,0.321-0.09,0.487C83.076,94.56,83.092,94.657,83.123,94.746z M84.01,95.273
		c-0.013,0.029-0.147-0.04-0.358-0.173c0.11-0.012,0.225-0.057,0.332-0.147c0.099-0.081,0.184-0.173,0.272-0.263
		C84.176,94.896,84.094,95.094,84.01,95.273z M84.78,96.008c0.477-0.507,0.613-1.482,0.771-2.097
		c0.187-0.727,0.428-1.549,0.506-2.342c0.062-0.002,0.123-0.008,0.184-0.012c-0.433,1.515-0.804,3.057-1.076,4.646
		C85.038,96.139,84.909,96.072,84.78,96.008z M85.231,105.837c-0.834,0.68-0.973,0.491-0.878,0.057c0.052,0,0.104,0.002,0.15-0.016
		c0.388-0.152,0.771-0.321,1.152-0.49c0.016,0.025,0.034,0.047,0.052,0.068C85.549,105.582,85.389,105.708,85.231,105.837z
		 M85.721,104.202c-0.051,0.024-0.101,0.052-0.152,0.075c0.098-1.87,0.609-3.626,1.113-5.433c0.045-0.16,0.083-0.32,0.123-0.481
		c0.024,0.012,0.047,0.023,0.072,0.034C86.487,100.33,86.117,102.268,85.721,104.202z M87.552,93.725
		c0.088-0.042,0.17-0.104,0.226-0.206c0.124-0.225,0.232-0.453,0.34-0.682c-0.367,1.45-0.694,2.907-0.998,4.368
		c-0.021-0.01-0.041-0.02-0.061-0.029C87.268,96.035,87.396,94.889,87.552,93.725z M86.977,103.346
		c0.298-1.496,0.587-2.991,0.887-4.482c0.281,0.132,0.553,0.264,0.824,0.395C88.175,100.588,87.762,102.12,86.977,103.346z
		 M89.043,98.125c-0.313-0.146-0.627-0.294-0.938-0.443c0.121-0.584,0.246-1.169,0.374-1.751c-0.057,0.449-0.113,0.898-0.173,1.348
		c-0.067,0.506,0.49,0.789,0.815,0.593C89.095,97.955,89.068,98.039,89.043,98.125z M91.173,80.486
		c0.075-0.053,0.156-0.095,0.238-0.131c0.049,0.1,0.101,0.197,0.154,0.294c-0.154-0.047-0.332-0.021-0.473,0.059
		C91.118,80.634,91.147,80.561,91.173,80.486z M91.07,85.723c-0.009,1.088-0.09,2.179-0.138,3.271
		c-0.027,0.002-0.054,0.003-0.081,0.006C90.953,87.91,90.996,86.816,91.07,85.723z M89.458,96.806
		c0.231-1.449,0.384-2.938,0.746-4.363c0.003-0.009,0.01-0.016,0.013-0.023c0.008-0.024,0.014-0.049,0.021-0.072
		c0.051,0.565,0.097,1.195,0.157,1.838C90.064,95.053,89.75,95.925,89.458,96.806z M91.621,99.299
		c-0.26-0.117-0.521-0.236-0.781-0.353c0.057-0.161,0.119-0.319,0.178-0.479c0.117,0.009,0.237-0.024,0.339-0.108
		c0.091,0.155,0.191,0.293,0.299,0.416c-0.002,0.049-0.007,0.098-0.008,0.148c-0.002,0.111,0.032,0.208,0.088,0.287
		C91.697,99.24,91.659,99.271,91.621,99.299z M93.473,83.999c0.087,0.249,0.157,0.507,0.221,0.768
		c-0.125,0.066-0.22,0.177-0.257,0.316c-0.302-1.125-0.684-2.221-1.166-3.296C92.726,82.477,93.183,83.166,93.473,83.999z
		 M92.991,88.844c-0.143,0.011-0.288,0.021-0.432,0.032c-0.006-1.256-0.082-2.51-0.194-3.765
		C92.698,86.319,92.905,87.562,92.991,88.844z M92.511,90.742c0.014-0.276,0.025-0.553,0.033-0.829
		c0.17-0.009,0.338-0.019,0.508-0.027c0.012,0.227,0.026,0.449,0.04,0.675c-0.136,0.183-0.266,0.373-0.388,0.569
		C92.701,90.974,92.628,90.837,92.511,90.742z M92.965,99.91c-0.034-0.016-0.069-0.03-0.103-0.047
		c0.192-0.019,0.375-0.134,0.449-0.374c0.007-0.021,0.016-0.044,0.022-0.067c0.28-0.175,0.508-0.268,0.622-0.208
		C93.625,99.445,93.293,99.675,92.965,99.91z M95.528,95.229c-0.253,0.368-0.515,0.721-0.797,1.055
		c0.274-0.447,0.547-0.896,0.831-1.339C95.551,95.038,95.54,95.133,95.528,95.229z M96.21,88.614
		c-0.381-0.99-0.817-1.955-1.341-2.887c-0.022-0.146-0.045-0.294-0.069-0.439c0.002-0.124,0.006-0.249,0.01-0.372
		c0.5,1.224,0.994,2.453,1.458,3.693C96.249,88.611,96.23,88.612,96.21,88.614z M98.328,96.251
		c-0.014-0.123-0.063-0.236-0.139-0.331c-0.277-1.314-0.519-2.636-0.863-3.869c-0.224-0.806-0.467-1.6-0.734-2.383
		c0.021-0.003,0.043-0.003,0.064-0.005c0.228,0.636,0.451,1.271,0.66,1.912c0.298,0.915,0.617,1.813,0.943,2.707
		c0.105,0.578,0.244,1.15,0.459,1.71C98.588,96.078,98.459,96.164,98.328,96.251z M98.927,101.371
		c0.125,0.093,0.292,0.115,0.447,0.08c0.081,0.424,1.192,2.906,1.209,3.337C100.347,104.356,99.101,101.842,98.927,101.371z
		 M101.106,101.789c0.034,0.09,1.451,3.078,1.519,3.804c-0.909-1.735-2.338-5.711-3.042-7.534c-0.133-0.346-0.476-0.417-0.732-0.308
		c-0.012-0.028-0.023-0.056-0.035-0.083c0.098-0.057,0.195-0.116,0.293-0.173c0.092-0.053,0.191-0.107,0.288-0.16
		C99.964,98.813,100.542,100.288,101.106,101.789z M99.783,95.293c0.001-0.216,0.001-0.431,0.001-0.646
		c0.064,0.159,0.142,0.317,0.25,0.477c0.002,0.003,0.005,0.005,0.007,0.008C99.955,95.186,99.868,95.238,99.783,95.293z
		 M100.447,92.923c-0.031-0.183-0.062-0.358-0.096-0.515c-0.186-0.848-0.599-1.653-0.857-2.481
		c-0.074-0.238-0.237-0.348-0.411-0.367c0.205-0.005,0.411-0.011,0.617-0.018c-0.015,0.076-0.017,0.155,0.012,0.24
		c0.241,0.705,0.502,1.432,0.864,2.091C100.552,92.225,100.509,92.575,100.447,92.923z M101.187,94.403
		c0.098-0.328,0.182-0.665,0.251-1.01c0.092,0.164,0.178,0.331,0.276,0.492c0.036,0.06,0.078,0.104,0.122,0.142
		C101.62,94.153,101.401,94.273,101.187,94.403z M101.533,89.816c-0.019-0.109-0.047-0.214-0.072-0.321
		c0.161-0.005,0.322-0.011,0.483-0.017c-0.031,0.071-0.051,0.152-0.043,0.252c0.002,0.023,0.004,0.048,0.005,0.071
		c-0.077,0.124-0.112,0.273-0.073,0.422c0.036,0.137,0.082,0.268,0.124,0.4c0.006,0.169,0.007,0.336,0.004,0.504
		C101.807,90.695,101.656,90.259,101.533,89.816z M102.999,89.92c-0.01-0.066-0.026-0.129-0.034-0.195
		c0.156,0.001,0.307,0.007,0.451,0.017c-0.01,0.05-0.019,0.103-0.012,0.165c0.021,0.171,0.04,0.34,0.06,0.509
		C103.325,90.239,103.171,90.073,102.999,89.92z M105.882,90.765c0.011-0.292,0.007-0.585,0.001-0.885
		C106.187,90.048,106.253,90.324,105.882,90.765z"/>
	<path d="M138.75,88.303c-0.823,0.021-1.645,0.06-2.466,0.105c-0.106-0.301-0.213-0.602-0.327-0.899
		c-0.818-2.133-1.671-4.326-2.645-6.394c-0.233-0.496-1.977-3.416-3.199-3.275c-0.099-0.013-0.203-0.008-0.311,0.045
		c-1.474,0.716-1.806,2.464-2.128,3.927c-0.025,0.115-0.055,0.229-0.081,0.345c-0.239,0.72-0.418,1.478-0.559,2.187
		c-0.362,1.331-0.731,2.665-0.991,4.011c-0.084,0.249-0.174,0.497-0.256,0.748c-3.319,0.18-6.621,0.468-9.848,1.314
		c-0.327,0.085-0.494,0.505-0.308,0.789c1.81,2.772,4.995,4.644,8.151,6.202c-0.216,1.526-1.504,7.761-1.688,8.237
		c-0.354,0.918-0.02,2.046,1.071,1.951c0.452-0.037,8.516-6.004,8.799-6.207c2.099,1.41,4.27,2.709,6.419,4.049
		c0.782,0.486,2.615,2.03,3.659,1.397c1.214-0.736-1.956-8.326-2.105-8.911c-0.114-0.45-0.248-0.895-0.389-1.336
		c2.838-1.528,6.427-3.454,7.711-6.149C148.908,86.979,139.925,88.273,138.75,88.303z M145.814,90.341
		c-0.722,2.378-4.621,3.998-6.547,5.193c-0.193,0.119-0.396,0.241-0.593,0.362c0.158,1.332,3.012,9.57,2.682,9.899
		c-0.288,0.288-1.671-0.554-1.734-0.611c-1.276-1.171-2.76-2.224-4.131-3.289c-0.923-0.718-2.012-1.188-2.974-1.818
		c-2.172,1.486-8.908,5.947-9.033,6.133c-0.093,0.045-0.337,0.26-0.389,0.255c-0.88-1.01,1.815-8.093,2.137-9.527
		c-0.617-0.244-4.674-1.568-7.645-4.607c-0.213-0.217-0.296-0.431-0.254-0.648c0-0.005,0.002-0.009,0.002-0.015
		c0.002-0.01,0.002-0.021,0.005-0.03c0.026-0.322,0.221-0.641,0.566-0.746c2.797-0.854,6.1-0.744,9.146-0.82
		c0.272-0.628,0.301-1.398,0.465-2.128c0.278-1.232,0.508-2.472,0.781-3.704c0.284-1.284,0.163-3.962,1.537-4.619
		c0.044-0.021,0.088-0.034,0.131-0.046c0.184-0.134,0.414-0.202,0.653-0.135c1.434,0.404,2.849,4.71,3.076,5.414
		c0.001-0.034,1.38,4.44,2.109,4.718c0.497-0.012,2.611-0.152,2.819-0.157c-0.003,0.015,1.585-0.039,2.38-0.088
		c1.312-0.137,4.529-0.014,4.623,0.265C145.807,89.787,145.897,90.066,145.814,90.341z"/>
	<path d="M176.725,88.303c-0.823,0.021-1.645,0.06-2.466,0.105c-0.106-0.301-0.213-0.602-0.327-0.899
		c-0.818-2.133-1.671-4.326-2.645-6.394c-0.233-0.496-1.977-3.416-3.199-3.275c-0.099-0.013-0.203-0.008-0.312,0.045
		c-1.474,0.716-1.806,2.464-2.128,3.927c-0.025,0.115-0.055,0.229-0.081,0.345c-0.239,0.72-0.419,1.478-0.559,2.187
		c-0.362,1.331-0.731,2.665-0.991,4.011c-0.084,0.249-0.174,0.497-0.256,0.748c-3.319,0.18-6.621,0.468-9.848,1.314
		c-0.327,0.085-0.494,0.505-0.308,0.789c1.81,2.772,4.995,4.644,8.151,6.202c-0.216,1.526-1.504,7.761-1.688,8.237
		c-0.354,0.918-0.02,2.046,1.071,1.951c0.452-0.037,8.516-6.004,8.799-6.207c2.099,1.41,4.27,2.709,6.419,4.049
		c0.782,0.486,2.615,2.03,3.659,1.397c1.214-0.736-1.956-8.326-2.105-8.911c-0.114-0.45-0.248-0.895-0.389-1.336
		c2.838-1.528,6.427-3.454,7.711-6.149C186.883,86.979,177.9,88.273,176.725,88.303z M183.789,90.341
		c-0.722,2.378-4.621,3.998-6.547,5.193c-0.193,0.119-0.397,0.241-0.593,0.362c0.158,1.332,3.012,9.57,2.682,9.899
		c-0.288,0.288-1.671-0.554-1.734-0.611c-1.276-1.171-2.76-2.224-4.131-3.289c-0.923-0.718-2.012-1.188-2.974-1.818
		c-2.172,1.486-8.908,5.947-9.033,6.133c-0.093,0.045-0.337,0.26-0.389,0.255c-0.88-1.01,1.815-8.093,2.137-9.527
		c-0.617-0.244-4.674-1.568-7.645-4.607c-0.213-0.217-0.296-0.431-0.254-0.648c0.001-0.005,0.002-0.009,0.002-0.015
		c0.003-0.01,0.003-0.021,0.005-0.03c0.026-0.322,0.221-0.641,0.566-0.746c2.797-0.854,6.1-0.744,9.146-0.82
		c0.272-0.628,0.301-1.398,0.465-2.128c0.278-1.232,0.508-2.472,0.781-3.704c0.284-1.284,0.163-3.962,1.537-4.619
		c0.044-0.021,0.088-0.034,0.131-0.046c0.184-0.134,0.414-0.202,0.653-0.135c1.434,0.404,2.849,4.71,3.076,5.414
		c0.001-0.034,1.38,4.44,2.109,4.718c0.497-0.012,2.611-0.152,2.819-0.157c-0.003,0.015,1.585-0.039,2.38-0.088
		c1.311-0.137,4.529-0.014,4.623,0.265C183.782,89.787,183.872,90.066,183.789,90.341z"/>
</g>
<g>
</g>
<g>
</g>
<g>
</g>
<g>
</g>
<g>
</g>
<g>
</g>
<g>
</g>
<g>
</g>
<g>
</g>
<g>
</g>
<g>
</g>
<g>
</g>
<g>
</g>
<g>
</g>
<g>
</g>
</svg>
